<svg version="1.1" id="Layer_1" xmlns="http://www.w3.org/2000/svg" xmlns:xlink="http://www.w3.org/1999/xlink" x="0px" y="0px"
	 width="100%" viewBox="-485.5 -485.5 2048 2048" enable-background="new 0 0 2048 2048" xml:space="preserve" style="background-color: #fff">
<!-- background -->
<rect width="2048" height="2048" x="-485.5" y="-485.5" style="fill:rgb(14,20,27)" />
<path fill="#0E141B" opacity="1.000000" stroke="none" 
	d="
M596.000000,1079.000000 
	C397.356262,1079.000000 199.212524,1079.000000 1.034390,1079.000000 
	C1.034390,719.731140 1.034390,360.462341 1.034390,1.096748 
	C359.893951,1.096748 718.787903,1.096748 1077.840942,1.096748 
	C1077.840942,360.333282 1077.840942,719.666626 1077.840942,1079.000000 
	C917.461914,1079.000000 756.980957,1079.000000 596.000000,1079.000000 
M462.345398,496.162781 
	C464.574860,498.631805 466.731018,501.171875 469.044891,503.559052 
	C497.627533,533.047058 532.631958,543.217529 572.441223,536.211609 
	C601.558716,531.087341 624.930054,515.525696 641.902954,491.337341 
	C665.858582,457.197723 669.831177,419.988495 653.873962,381.850372 
	C632.330505,330.361176 576.472534,304.337250 526.830872,315.960815 
	C488.837738,324.856873 461.231873,347.120300 446.598450,382.966461 
	C430.338837,422.796204 435.966766,460.880859 462.345398,496.162781 
M424.209503,531.177551 
	C389.492889,529.213196 359.171997,540.093323 335.184021,565.034668 
	C305.408997,595.992981 295.959534,633.319336 307.542450,674.797302 
	C316.988281,708.622437 338.602875,732.908020 370.950958,746.822876 
	C398.756378,758.783691 427.230652,759.325989 455.594971,748.604553 
	C486.177795,737.044495 507.482727,715.698608 519.862122,685.536621 
	C529.489380,662.079956 530.607605,637.932739 523.917603,613.599792 
	C518.382874,593.468933 507.938965,576.092102 492.565247,561.774109 
	C473.501770,544.019775 450.924438,534.106384 424.209503,531.177551 
M646.523499,538.087830 
	C630.241272,543.921082 616.072083,553.222778 604.251221,565.664978 
	C571.555481,600.079224 563.717529,648.190063 583.698792,691.486206 
	C606.846619,741.644043 662.046265,766.421814 715.344910,751.945618 
	C749.152344,742.763306 773.399536,721.591492 787.876221,689.802917 
	C801.486328,659.917236 801.830139,629.254883 788.704102,599.288330 
	C773.794434,565.249695 747.725586,543.439819 711.512634,534.214478 
	C689.737732,528.667358 668.313782,530.107666 646.523499,538.087830 
M725.938293,512.565491 
	C742.875610,526.606384 762.285889,535.569275 784.081238,537.743164 
	C808.669556,540.195679 832.293762,536.406555 854.177368,523.569580 
	C880.796143,507.954926 898.189758,485.197662 906.544006,455.996246 
	C912.135437,436.452209 912.276123,416.153900 906.541382,396.414215 
	C896.517395,361.910309 875.163757,336.975311 842.027100,322.538605 
	C819.380981,312.672272 795.818420,310.555298 771.953796,316.363708 
	C748.869629,321.982117 729.318970,333.872650 713.396973,351.893127 
	C695.101929,372.599304 686.241211,396.891418 685.228943,424.023773 
	C684.682983,438.655731 687.550659,453.053406 693.040283,466.795441 
	C700.132324,484.548889 710.613220,499.865631 725.938293,512.565491 
M229.974075,340.480194 
	C212.143417,354.873505 200.809860,373.670105 194.576721,395.340179 
	C189.174561,414.121216 189.125504,433.375488 193.679382,452.465118 
	C199.584290,477.218201 212.378601,497.768097 232.264893,513.674988 
	C259.328278,535.322693 290.523895,542.835754 324.090912,536.483582 
	C361.104797,529.479187 388.380676,507.988342 404.851685,473.957336 
	C416.479584,449.932831 418.410583,424.316559 412.108704,398.605774 
	C405.649628,372.253418 390.869141,351.037170 368.708191,335.009064 
	C343.332397,316.655792 315.219879,310.273132 284.457336,314.997009 
	C264.091705,318.124359 246.282059,326.909851 229.974075,340.480194 
M839.549194,746.999329 
	C832.417114,745.283936 825.346863,743.226562 818.140137,741.924072 
	C802.956909,739.179871 787.922180,741.547852 773.576294,746.071899 
	C763.315674,749.307678 753.644958,754.768250 744.166260,760.052612 
	C726.813599,769.726685 714.689941,784.826416 705.526123,801.901184 
	C700.549011,811.174744 697.279114,821.748474 695.237244,832.128723 
	C691.661438,850.307739 691.879517,868.654419 697.732300,886.602905 
	C703.469666,904.197754 712.299133,919.913452 725.517029,932.985291 
	C736.471680,943.818848 748.584412,953.114624 763.509888,957.657959 
	C774.381775,960.967285 785.432800,964.411194 796.644409,965.694458 
	C809.971863,967.219788 823.255676,965.146912 836.462341,961.580139 
	C855.277100,956.498718 871.420471,947.178711 884.701416,933.424194 
	C892.193176,925.665283 898.374634,916.424500 904.051025,907.178894 
	C913.133728,892.385315 917.530029,875.883911 917.857056,858.550659 
	C918.002869,850.821045 916.629639,843.067078 916.026672,835.317871 
	C915.139893,823.920105 911.532593,813.136108 906.279907,803.300293 
	C898.777344,789.251404 889.232910,776.584229 876.323730,766.627197 
	C865.320190,758.140137 853.902710,750.765930 839.549194,746.999329 
M638.018494,922.486694 
	C648.142456,909.473938 655.046692,894.894958 658.515259,878.814148 
	C662.142029,861.999695 662.518677,845.040527 658.499451,828.241333 
	C655.963440,817.641724 651.779236,807.713684 646.362793,798.083130 
	C635.190308,778.218201 619.575378,763.109680 599.396301,753.203247 
	C579.107788,743.242981 557.293335,738.785339 534.705627,742.221191 
	C513.147217,745.500488 493.351440,753.129944 476.423767,767.800659 
	C460.361847,781.721069 449.159637,798.607727 442.107635,818.370056 
	C437.102661,832.395935 434.819336,846.970764 437.079254,861.812134 
	C438.713287,872.543030 439.864258,883.717163 443.882477,893.617310 
	C448.422485,904.803162 454.996185,915.501587 462.377869,925.112061 
	C472.003357,937.643799 484.289520,947.532104 498.814240,954.497009 
	C511.314178,960.490967 524.321838,964.828552 538.036926,965.824219 
	C558.642273,967.320129 578.585754,964.540161 597.534180,955.163147 
	C613.369019,947.326904 626.517822,936.616821 638.018494,922.486694 
M851.844116,728.748413 
	C857.256531,732.681702 862.473816,736.925049 868.123108,740.482117 
	C879.014709,747.339966 891.179382,750.998169 903.663879,753.763245 
	C926.493225,758.819458 948.517273,755.541504 969.850586,746.980042 
	C992.784912,737.775879 1010.008911,721.673279 1022.536133,700.624268 
	C1030.726318,686.862488 1035.849609,671.679688 1037.728882,655.895691 
	C1039.661743,639.661743 1037.619385,623.297058 1032.196289,607.860352 
	C1026.056274,590.382568 1016.705078,574.743286 1002.684082,562.002258 
	C986.722229,547.497742 968.641602,537.656738 947.483704,533.262573 
	C928.167175,529.250854 909.162354,530.191284 890.769043,537.090027 
	C881.261597,540.655945 871.901733,545.097839 863.308472,550.475464 
	C855.513550,555.353516 847.789673,561.149414 841.933960,568.133240 
	C833.174927,578.579712 825.326660,589.819885 820.609253,603.098267 
	C816.524292,614.596436 813.735779,626.229431 813.116150,638.277588 
	C812.318787,653.782959 814.183350,669.114441 820.755798,683.334167 
	C825.217896,692.988037 830.274048,702.478333 836.125610,711.341248 
	C840.258240,717.600647 846.169067,722.686096 851.844116,728.748413 
M482.307434,116.139824 
	C459.861145,104.836418 436.391327,100.526276 411.377686,104.920563 
	C395.389954,107.729202 380.676086,113.688576 367.391113,122.609886 
	C354.542175,131.238342 343.984283,142.338287 335.576538,155.634399 
	C324.931671,172.468338 319.062988,190.589508 318.028809,210.352859 
	C317.174896,226.670761 320.097321,242.331558 325.934845,257.614166 
	C334.366547,279.688538 349.197449,296.590912 368.182251,309.863190 
	C379.526855,317.794220 392.495605,322.729218 406.135895,325.543365 
	C436.656281,331.840149 465.213654,326.825928 491.575409,310.199219 
	C504.955811,301.760040 515.776306,290.512299 524.626221,277.489624 
	C532.452637,265.973022 537.875122,253.043930 540.476746,239.574966 
	C542.612183,228.519257 542.061035,216.861725 541.953552,205.478012 
	C541.836243,193.052368 538.056763,181.344849 533.033508,170.055008 
	C522.521484,146.428772 505.607849,128.774673 482.307434,116.139824 
M588.498352,292.978729 
	C598.430847,302.861145 608.977234,312.084778 622.099426,317.359802 
	C631.119873,320.985901 640.523315,323.938568 650.007263,326.075470 
	C671.367249,330.888367 692.488098,328.144928 712.537781,320.304108 
	C731.650696,312.829620 747.457703,300.395935 760.018494,283.767609 
	C774.743225,264.274536 782.200684,242.435303 782.914307,218.249496 
	C783.343506,203.702606 780.901794,189.531158 775.505310,175.913605 
	C761.591492,140.803299 736.285034,118.046593 700.304565,107.356056 
	C678.034790,100.739250 655.466736,101.605774 633.762634,109.468040 
	C609.770386,118.159203 590.227905,132.962234 576.218384,154.938354 
	C559.353699,181.393158 554.181946,209.924698 560.521729,240.219666 
	C564.654480,259.968140 574.294983,277.443787 588.498352,292.978729 
M94.004471,720.526184 
	C103.062737,730.345093 113.215370,738.574341 125.457146,744.336609 
	C141.431213,751.855774 158.127991,755.816650 175.690308,755.887756 
	C181.432877,755.911072 187.172363,754.595398 192.927414,754.038086 
	C208.240723,752.555115 222.488235,747.345520 235.060898,739.002991 
	C251.447479,728.129761 265.967560,714.944275 274.134247,696.309204 
	C277.547394,688.520996 281.433777,680.817566 283.730194,672.687317 
	C288.945007,654.224854 288.964050,635.634094 284.297394,616.815186 
	C279.622650,597.963623 270.854584,581.600159 257.851776,567.393982 
	C250.062805,558.884216 241.018677,552.047607 230.991028,546.172180 
	C214.861938,536.721680 197.473343,532.033203 179.108734,531.125305 
	C160.064316,530.183838 141.691040,534.263428 125.007721,543.384155 
	C114.780899,548.975159 104.859528,555.759949 96.358475,563.680359 
	C88.982872,570.552185 82.685127,579.184204 77.938416,588.115784 
	C72.480003,598.386719 67.880135,609.542664 65.405609,620.860413 
	C62.417934,634.525146 61.830746,648.566833 64.716080,662.810181 
	C69.147636,684.686462 77.489014,704.178284 94.004471,720.526184 
M314.675629,964.074158 
	C326.403351,962.829712 336.978607,958.146851 347.564331,953.332275 
	C362.536743,946.522278 373.807007,935.060486 384.023254,922.917053 
	C392.013947,913.419128 397.418915,902.078979 401.607849,889.984497 
	C407.688629,872.427795 409.008423,854.680359 406.533875,836.752747 
	C403.978607,818.240601 396.366150,801.471497 385.226990,786.287231 
	C374.058136,771.062500 359.640045,759.775818 342.774811,751.999573 
	C324.831787,743.726318 305.849182,738.860718 285.812164,742.081665 
	C275.925598,743.670837 265.920868,745.400940 256.454163,748.532349 
	C239.780945,754.047424 225.933655,764.348389 213.650497,776.808594 
	C205.788834,784.783569 199.942734,794.012512 194.839172,803.971375 
	C187.119568,819.035034 183.723434,835.057190 183.108826,851.678833 
	C182.495346,868.269470 185.985901,884.134399 192.852966,899.392944 
	C200.571396,916.543274 211.685150,930.665222 226.406876,942.385254 
	C239.823746,953.066589 254.917007,959.845703 271.378815,963.489624 
	C285.361816,966.584839 299.610260,967.539429 314.675629,964.074158 
z"/>
<!-- center triangle top -->
<path fill="#A6C8FF" opacity="1.000000" stroke="none" 
	d="
M462.144775,495.869934 
	C435.966766,460.880859 430.338837,422.796204 446.598450,382.966461 
	C461.231873,347.120300 488.837738,324.856873 526.830872,315.960815 
	C576.472534,304.337250 632.330505,330.361176 653.873962,381.850372 
	C669.831177,419.988495 665.858582,457.197723 641.902954,491.337341 
	C624.930054,515.525696 601.558716,531.087341 572.441223,536.211609 
	C532.631958,543.217529 497.627533,533.047058 469.044891,503.559052 
	C466.731018,501.171875 464.574860,498.631805 462.144775,495.869934 
z"/>
<!-- center triangle bottom left -->
<path fill="#8DADE0" opacity="1.000000" stroke="none" 
	d="
M424.674561,531.205078 
	C450.924438,534.106384 473.501770,544.019775 492.565247,561.774109 
	C507.938965,576.092102 518.382874,593.468933 523.917603,613.599792 
	C530.607605,637.932739 529.489380,662.079956 519.862122,685.536621 
	C507.482727,715.698608 486.177795,737.044495 455.594971,748.604553 
	C427.230652,759.325989 398.756378,758.783691 370.950958,746.822876 
	C338.602875,732.908020 316.988281,708.622437 307.542450,674.797302 
	C295.959534,633.319336 305.408997,595.992981 335.184021,565.034668 
	C359.171997,540.093323 389.492889,529.213196 424.674561,531.205078 
z"/>
<!-- center triangle bottom right -->
<path fill="#FCAAFC" opacity="1.000000" stroke="none" 
	d="
M646.897705,537.976807 
	C668.313782,530.107666 689.737732,528.667358 711.512634,534.214478 
	C747.725586,543.439819 773.794434,565.249695 788.704102,599.288330 
	C801.830139,629.254883 801.486328,659.917236 787.876221,689.802917 
	C773.399536,721.591492 749.152344,742.763306 715.344910,751.945618 
	C662.046265,766.421814 606.846619,741.644043 583.698792,691.486206 
	C563.717529,648.190063 571.555481,600.079224 604.251221,565.664978 
	C616.072083,553.222778 630.241272,543.921082 646.897705,537.976807 
z"/>
<!-- top 4 row 2 right -->
<path fill="#1C5FA8" opacity="1.000000" stroke="none" 
	d="
M725.639526,512.368652 
	C710.613220,499.865631 700.132324,484.548889 693.040283,466.795441 
	C687.550659,453.053406 684.682983,438.655731 685.228943,424.023773 
	C686.241211,396.891418 695.101929,372.599304 713.396973,351.893127 
	C729.318970,333.872650 748.869629,321.982117 771.953796,316.363708 
	C795.818420,310.555298 819.380981,312.672272 842.027100,322.538605 
	C875.163757,336.975311 896.517395,361.910309 906.541382,396.414215 
	C912.276123,416.153900 912.135437,436.452209 906.544006,455.996246 
	C898.189758,485.197662 880.796143,507.954926 854.177368,523.569580 
	C832.293762,536.406555 808.669556,540.195679 784.081238,537.743164 
	C762.285889,535.569275 742.875610,526.606384 725.639526,512.368652 
z"/>
<!-- top 4 row 2 left -->
<path fill="#1C5FA8" opacity="1.000000" stroke="none" 
	d="
M230.230515,340.229980 
	C246.282059,326.909851 264.091705,318.124359 284.457336,314.997009 
	C315.219879,310.273132 343.332397,316.655792 368.708191,335.009064 
	C390.869141,351.037170 405.649628,372.253418 412.108704,398.605774 
	C418.410583,424.316559 416.479584,449.932831 404.851685,473.957336 
	C388.380676,507.988342 361.104797,529.479187 324.090912,536.483582 
	C290.523895,542.835754 259.328278,535.322693 232.264893,513.674988 
	C212.378601,497.768097 199.584290,477.218201 193.679382,452.465118 
	C189.125504,433.375488 189.174561,414.121216 194.576721,395.340179 
	C200.809860,373.670105 212.143417,354.873505 230.230515,340.229980 
z"/>
<!-- bottom 3 right -->
<path fill="#6E2B72" opacity="1.000000" stroke="none" 
	d="
M839.938232,747.104004 
	C853.902710,750.765930 865.320190,758.140137 876.323730,766.627197 
	C889.232910,776.584229 898.777344,789.251404 906.279907,803.300293 
	C911.532593,813.136108 915.139893,823.920105 916.026672,835.317871 
	C916.629639,843.067078 918.002869,850.821045 917.857056,858.550659 
	C917.530029,875.883911 913.133728,892.385315 904.051025,907.178894 
	C898.374634,916.424500 892.193176,925.665283 884.701416,933.424194 
	C871.420471,947.178711 855.277100,956.498718 836.462341,961.580139 
	C823.255676,965.146912 809.971863,967.219788 796.644409,965.694458 
	C785.432800,964.411194 774.381775,960.967285 763.509888,957.657959 
	C748.584412,953.114624 736.471680,943.818848 725.517029,932.985291 
	C712.299133,919.913452 703.469666,904.197754 697.732300,886.602905 
	C691.879517,868.654419 691.661438,850.307739 695.237244,832.128723 
	C697.279114,821.748474 700.549011,811.174744 705.526123,801.901184 
	C714.689941,784.826416 726.813599,769.726685 744.166260,760.052612 
	C753.644958,754.768250 763.315674,749.307678 773.576294,746.071899 
	C787.922180,741.547852 802.956909,739.179871 818.140137,741.924072 
	C825.346863,743.226562 832.417114,745.283936 839.938232,747.104004 
z"/>
<!-- bottom 3 center -->
<path fill="#004786" opacity="1.000000" stroke="none" 
	d="
M637.766602,922.743042 
	C626.517822,936.616821 613.369019,947.326904 597.534180,955.163147 
	C578.585754,964.540161 558.642273,967.320129 538.036926,965.824219 
	C524.321838,964.828552 511.314178,960.490967 498.814240,954.497009 
	C484.289520,947.532104 472.003357,937.643799 462.377869,925.112061 
	C454.996185,915.501587 448.422485,904.803162 443.882477,893.617310 
	C439.864258,883.717163 438.713287,872.543030 437.079254,861.812134 
	C434.819336,846.970764 437.102661,832.395935 442.107635,818.370056 
	C449.159637,798.607727 460.361847,781.721069 476.423767,767.800659 
	C493.351440,753.129944 513.147217,745.500488 534.705627,742.221191 
	C557.293335,738.785339 579.107788,743.242981 599.396301,753.203247 
	C619.575378,763.109680 635.190308,778.218201 646.362793,798.083130 
	C651.779236,807.713684 655.963440,817.641724 658.499451,828.241333 
	C662.518677,845.040527 662.142029,861.999695 658.515259,878.814148 
	C655.046692,894.894958 648.142456,909.473938 637.766602,922.743042 
z"/>
<!-- middle right -->
<path fill="#6E2B72" opacity="1.000000" stroke="none" 
	d="
M851.565063,728.521973 
	C846.169067,722.686096 840.258240,717.600647 836.125610,711.341248 
	C830.274048,702.478333 825.217896,692.988037 820.755798,683.334167 
	C814.183350,669.114441 812.318787,653.782959 813.116150,638.277588 
	C813.735779,626.229431 816.524292,614.596436 820.609253,603.098267 
	C825.326660,589.819885 833.174927,578.579712 841.933960,568.133240 
	C847.789673,561.149414 855.513550,555.353516 863.308472,550.475464 
	C871.901733,545.097839 881.261597,540.655945 890.769043,537.090027 
	C909.162354,530.191284 928.167175,529.250854 947.483704,533.262573 
	C968.641602,537.656738 986.722229,547.497742 1002.684082,562.002258 
	C1016.705078,574.743286 1026.056274,590.382568 1032.196289,607.860352 
	C1037.619385,623.297058 1039.661743,639.661743 1037.728882,655.895691 
	C1035.849609,671.679688 1030.726318,686.862488 1022.536133,700.624268 
	C1010.008911,721.673279 992.784912,737.775879 969.850586,746.980042 
	C948.517273,755.541504 926.493225,758.819458 903.663879,753.763245 
	C891.179382,750.998169 879.014709,747.339966 868.123108,740.482117 
	C862.473816,736.925049 857.256531,732.681702 851.565063,728.521973 
z"/>
<!-- top 4 row 1 left -->
<path fill="#1C5FA8" opacity="1.000000" stroke="none" 
	d="
M482.634766,116.311813 
	C505.607849,128.774673 522.521484,146.428772 533.033508,170.055008 
	C538.056763,181.344849 541.836243,193.052368 541.953552,205.478012 
	C542.061035,216.861725 542.612183,228.519257 540.476746,239.574966 
	C537.875122,253.043930 532.452637,265.973022 524.626221,277.489624 
	C515.776306,290.512299 504.955811,301.760040 491.575409,310.199219 
	C465.213654,326.825928 436.656281,331.840149 406.135895,325.543365 
	C392.495605,322.729218 379.526855,317.794220 368.182251,309.863190 
	C349.197449,296.590912 334.366547,279.688538 325.934845,257.614166 
	C320.097321,242.331558 317.174896,226.670761 318.028809,210.352859 
	C319.062988,190.589508 324.931671,172.468338 335.576538,155.634399 
	C343.984283,142.338287 354.542175,131.238342 367.391113,122.609886 
	C380.676086,113.688576 395.389954,107.729202 411.377686,104.920563 
	C436.391327,100.526276 459.861145,104.836418 482.634766,116.311813 
z"/>
<!-- top 4 row 1 right -->
<path fill="#1C5FA8" opacity="1.000000" stroke="none" 
	d="
M588.248840,292.726410 
	C574.294983,277.443787 564.654480,259.968140 560.521729,240.219666 
	C554.181946,209.924698 559.353699,181.393158 576.218384,154.938354 
	C590.227905,132.962234 609.770386,118.159203 633.762634,109.468040 
	C655.466736,101.605774 678.034790,100.739250 700.304565,107.356056 
	C736.285034,118.046593 761.591492,140.803299 775.505310,175.913605 
	C780.901794,189.531158 783.343506,203.702606 782.914307,218.249496 
	C782.200684,242.435303 774.743225,264.274536 760.018494,283.767609 
	C747.457703,300.395935 731.650696,312.829620 712.537781,320.304108 
	C692.488098,328.144928 671.367249,330.888367 650.007263,326.075470 
	C640.523315,323.938568 631.119873,320.985901 622.099426,317.359802 
	C608.977234,312.084778 598.430847,302.861145 588.248840,292.726410 
z"/>
<!-- middle left -->
<path fill="#254775" opacity="1.000000" stroke="none" 
	d="
M93.754883,720.275635 
	C77.489014,704.178284 69.147636,684.686462 64.716080,662.810181 
	C61.830746,648.566833 62.417934,634.525146 65.405609,620.860413 
	C67.880135,609.542664 72.480003,598.386719 77.938416,588.115784 
	C82.685127,579.184204 88.982872,570.552185 96.358475,563.680359 
	C104.859528,555.759949 114.780899,548.975159 125.007721,543.384155 
	C141.691040,534.263428 160.064316,530.183838 179.108734,531.125305 
	C197.473343,532.033203 214.861938,536.721680 230.991028,546.172180 
	C241.018677,552.047607 250.062805,558.884216 257.851776,567.393982 
	C270.854584,581.600159 279.622650,597.963623 284.297394,616.815186 
	C288.964050,635.634094 288.945007,654.224854 283.730194,672.687317 
	C281.433777,680.817566 277.547394,688.520996 274.134247,696.309204 
	C265.967560,714.944275 251.447479,728.129761 235.060898,739.002991 
	C222.488235,747.345520 208.240723,752.555115 192.927414,754.038086 
	C187.172363,754.595398 181.432877,755.911072 175.690308,755.887756 
	C158.127991,755.816650 141.431213,751.855774 125.457146,744.336609 
	C113.215370,738.574341 103.062737,730.345093 93.754883,720.275635 
z"/>
<!-- bottom 3 left -->
<path fill="#254775" opacity="1.000000" stroke="none" 
	d="
M314.245300,964.147217 
	C299.610260,967.539429 285.361816,966.584839 271.378815,963.489624 
	C254.917007,959.845703 239.823746,953.066589 226.406876,942.385254 
	C211.685150,930.665222 200.571396,916.543274 192.852966,899.392944 
	C185.985901,884.134399 182.495346,868.269470 183.108826,851.678833 
	C183.723434,835.057190 187.119568,819.035034 194.839172,803.971375 
	C199.942734,794.012512 205.788834,784.783569 213.650497,776.808594 
	C225.933655,764.348389 239.780945,754.047424 256.454163,748.532349 
	C265.920868,745.400940 275.925598,743.670837 285.812164,742.081665 
	C305.849182,738.860718 324.831787,743.726318 342.774811,751.999573 
	C359.640045,759.775818 374.058136,771.062500 385.226990,786.287231 
	C396.366150,801.471497 403.978607,818.240601 406.533875,836.752747 
	C409.008423,854.680359 407.688629,872.427795 401.607849,889.984497 
	C397.418915,902.078979 392.013947,913.419128 384.023254,922.917053 
	C373.807007,935.060486 362.536743,946.522278 347.564331,953.332275 
	C336.978607,958.146851 326.403351,962.829712 314.245300,964.147217 
z"/>
</svg>